<svg width="1490" height="410" viewBox="0 0 1490 410" fill="none" xmlns="http://www.w3.org/2000/svg">
<path d="M206.814 163.836C211.946 185.469 225.916 199.118 248.083 205.889C248.49 206.015 248.847 206.268 249.1 206.611C249.353 206.955 249.489 207.37 249.489 207.796C249.489 208.222 249.353 208.637 249.1 208.98C248.847 209.324 248.49 209.577 248.083 209.703C238.11 212.069 228.981 217.135 221.695 224.345C214.41 231.555 209.249 240.632 206.779 250.58C206.663 251.001 206.412 251.373 206.064 251.638C205.717 251.903 205.291 252.047 204.854 252.047C204.417 252.047 203.992 251.903 203.644 251.638C203.297 251.373 203.046 251.001 202.93 250.58C200.435 240.861 195.419 231.973 188.389 224.813C181.215 217.501 172.204 212.257 162.303 209.631C161.895 209.505 161.539 209.252 161.286 208.909C161.033 208.566 160.896 208.151 160.896 207.725C160.896 207.298 161.033 206.883 161.286 206.54C161.539 206.197 161.895 205.944 162.303 205.818C184.22 199.403 197.691 185.469 203.001 163.836C203.127 163.429 203.38 163.073 203.723 162.82C204.066 162.567 204.481 162.43 204.908 162.43C205.334 162.43 205.749 162.567 206.092 162.82C206.435 163.073 206.688 163.429 206.814 163.836Z" fill="#61D7EF"/>
<path d="M328.374 245.52C328.376 287.458 312.121 327.765 283.026 357.97C253.931 388.175 214.26 405.927 172.351 407.495C171.575 407.528 170.8 407.405 170.073 407.132C169.346 406.859 168.681 406.442 168.119 405.907C167.557 405.371 167.108 404.727 166.801 404.014C166.493 403.301 166.332 402.534 166.328 401.757V326.56C185.026 326.557 203.147 320.091 217.624 308.258C232.101 296.424 242.042 279.951 245.765 261.628C246.606 257.144 248.978 253.09 252.474 250.159C255.971 247.228 260.376 245.601 264.938 245.555L328.374 245.52Z" fill="#61D7EF"/>
<path d="M166.222 263.09V326.561C124.283 326.563 83.9766 310.308 53.7715 281.213C23.5665 252.118 5.81523 212.447 4.24759 170.538C4.21402 169.762 4.33714 168.987 4.60997 168.26C4.88281 167.533 5.29978 166.868 5.83547 166.306C6.37116 165.744 7.01438 165.295 7.72743 164.987C8.44049 164.68 9.20864 164.519 9.98527 164.515H85.1815C85.2112 183.212 91.7077 201.322 103.569 215.775C115.43 230.228 131.925 240.133 150.257 243.81C154.736 244.683 158.775 247.081 161.685 250.596C164.596 254.111 166.2 258.526 166.222 263.09Z" fill="#61D7EF"/>
<path d="M148.76 164.479H85.2891C85.2878 122.534 101.547 82.2221 130.65 52.0162C159.752 21.8102 199.432 4.06259 241.348 2.50395C242.123 2.47536 242.895 2.60214 243.62 2.87678C244.345 3.15141 245.008 3.56843 245.569 4.10314C246.13 4.63785 246.579 5.27954 246.888 5.99032C247.198 6.7011 247.362 7.46668 247.371 8.24184V83.4381C228.667 83.4367 210.538 89.9053 196.059 101.747C181.58 113.588 171.643 130.073 167.934 148.406C167.099 152.894 164.729 156.951 161.231 159.883C157.733 162.816 153.324 164.44 148.76 164.479Z" fill="#61D7EF"/>
<path d="M247.336 146.945V83.4377C289.278 83.4272 329.589 99.679 359.796 128.776C390.003 157.873 407.752 197.549 409.311 239.461C409.349 240.235 409.231 241.009 408.962 241.736C408.693 242.463 408.28 243.128 407.747 243.691C407.214 244.254 406.573 244.703 405.861 245.011C405.15 245.319 404.384 245.48 403.609 245.484H328.377C328.377 226.784 321.907 208.66 310.065 194.187C298.223 179.714 281.739 169.785 263.409 166.082C258.93 165.242 254.881 162.876 251.951 159.387C249.02 155.898 247.39 151.501 247.336 146.945Z" fill="#61D7EF"/>
<path d="M1412.4 313.548C1399.64 313.548 1388.05 310.405 1377.64 304.121C1367.23 297.64 1358.98 288.9 1352.9 277.902C1347 266.904 1344.06 254.531 1344.06 240.783C1344.06 227.035 1347 214.662 1352.9 203.664C1358.98 192.666 1367.14 183.926 1377.35 177.445C1387.76 170.964 1399.44 167.724 1412.4 167.724C1423.01 167.724 1432.44 169.982 1440.69 174.499C1449.13 178.82 1455.91 184.908 1461.01 192.764C1466.12 200.424 1468.97 209.36 1469.56 219.572V261.699C1468.97 271.715 1466.12 280.651 1461.01 288.507C1456.1 296.363 1449.43 302.55 1440.98 307.067C1432.73 311.387 1423.21 313.548 1412.4 313.548ZM1416.82 288.507C1429.98 288.507 1440.59 284.088 1448.64 275.251C1456.69 266.216 1460.72 254.727 1460.72 240.783C1460.72 231.16 1458.85 222.813 1455.12 215.742C1451.59 208.476 1446.48 202.879 1439.8 198.951C1433.12 194.826 1425.37 192.764 1416.53 192.764C1407.69 192.764 1399.84 194.826 1392.96 198.951C1386.28 203.075 1380.98 208.77 1377.05 216.037C1373.32 223.107 1371.46 231.258 1371.46 240.488C1371.46 249.915 1373.32 258.262 1377.05 265.529C1380.98 272.599 1386.38 278.196 1393.26 282.321C1400.13 286.445 1407.99 288.507 1416.82 288.507ZM1458.95 310.602V272.894L1463.96 238.721L1458.95 204.842V170.67H1485.76V310.602H1458.95Z" fill="white"/>
<path d="M1275.28 313.548C1261.53 313.548 1249.06 310.307 1237.87 303.826C1226.87 297.345 1218.13 288.605 1211.65 277.607C1205.36 266.413 1202.22 254.04 1202.22 240.488C1202.22 226.741 1205.36 214.368 1211.65 203.37C1218.13 192.371 1226.87 183.73 1237.87 177.445C1249.06 170.964 1261.53 167.724 1275.28 167.724C1286.08 167.724 1296.1 169.786 1305.33 173.91C1314.56 177.838 1322.51 183.632 1329.19 191.291L1311.52 208.967C1307.19 203.861 1301.89 200.031 1295.61 197.478C1289.52 194.728 1282.74 193.353 1275.28 193.353C1266.44 193.353 1258.59 195.415 1251.71 199.54C1244.84 203.468 1239.44 208.967 1235.51 216.037C1231.58 223.107 1229.62 231.258 1229.62 240.488C1229.62 249.719 1231.58 257.869 1235.51 264.94C1239.44 272.01 1244.84 277.607 1251.71 281.732C1258.59 285.856 1266.44 287.918 1275.28 287.918C1282.74 287.918 1289.52 286.641 1295.61 284.088C1301.89 281.339 1307.29 277.411 1311.81 272.305L1329.19 289.98C1322.71 297.443 1314.76 303.237 1305.33 307.361C1296.1 311.486 1286.08 313.548 1275.28 313.548Z" fill="white"/>
<path d="M1145.77 310.602V170.67H1172.28V310.602H1145.77ZM1159.02 142.684C1154.11 142.684 1150.09 141.112 1146.95 137.97C1143.8 134.631 1142.23 130.507 1142.23 125.597C1142.23 120.884 1143.8 116.956 1146.95 113.813C1150.09 110.475 1154.11 108.805 1159.02 108.805C1163.93 108.805 1167.96 110.475 1171.1 113.813C1174.24 116.956 1175.82 120.884 1175.82 125.597C1175.82 130.507 1174.24 134.631 1171.1 137.97C1167.96 141.112 1163.93 142.684 1159.02 142.684Z" fill="white"/>
<path d="M1039.59 310.602V149.754C1039.59 139.345 1041.85 130.31 1046.37 122.651C1050.88 114.795 1057.07 108.609 1064.93 104.092C1072.98 99.5745 1082.31 97.3159 1092.91 97.3159C1100.96 97.3159 1107.94 98.6907 1113.83 101.44C1119.72 104.19 1125.12 108.216 1130.03 113.519L1112.65 130.605C1110.1 127.856 1107.25 125.793 1104.11 124.419C1100.96 122.847 1097.13 122.062 1092.62 122.062C1084.17 122.062 1077.59 124.517 1072.88 129.427C1068.36 134.337 1066.1 141.112 1066.1 149.754V310.602H1039.59ZM1005.12 194.827V170.67H1110.59V194.827H1005.12Z" fill="white"/>
<path d="M953.969 310.602V170.67H980.482V310.602H953.969ZM967.225 142.684C962.316 142.684 958.289 141.112 955.147 137.97C952.005 134.631 950.434 130.507 950.434 125.597C950.434 120.884 952.005 116.956 955.147 113.813C958.289 110.475 962.316 108.805 967.225 108.805C972.135 108.805 976.161 110.475 979.304 113.813C982.446 116.956 984.017 120.884 984.017 125.597C984.017 130.507 982.446 134.631 979.304 137.97C976.161 141.112 972.135 142.684 967.225 142.684Z" fill="white"/>
<path d="M873.47 313.548C859.722 313.548 847.251 310.307 836.056 303.826C825.058 297.345 816.318 288.605 809.837 277.607C803.552 266.413 800.41 254.04 800.41 240.488C800.41 226.741 803.552 214.368 809.837 203.37C816.318 192.371 825.058 183.73 836.056 177.445C847.251 170.964 859.722 167.724 873.47 167.724C884.271 167.724 894.287 169.786 903.518 173.91C912.749 177.838 920.703 183.632 927.38 191.291L909.705 208.967C905.384 203.861 900.081 200.031 893.796 197.478C887.708 194.728 880.933 193.353 873.47 193.353C864.632 193.353 856.776 195.415 849.902 199.54C843.028 203.468 837.627 208.967 833.699 216.037C829.771 223.107 827.807 231.258 827.807 240.488C827.807 249.719 829.771 257.869 833.699 264.94C837.627 272.01 843.028 277.607 849.902 281.732C856.776 285.856 864.632 287.918 873.47 287.918C880.933 287.918 887.708 286.641 893.796 284.088C900.081 281.339 905.482 277.411 909.999 272.305L927.38 289.98C920.899 297.443 912.945 303.237 903.518 307.361C894.287 311.486 884.271 313.548 873.47 313.548Z" fill="white"/>
<path d="M697.588 313.548C684.822 313.548 673.235 310.405 662.826 304.121C652.417 297.64 644.168 288.9 638.08 277.902C632.188 266.904 629.242 254.531 629.242 240.783C629.242 227.035 632.188 214.662 638.08 203.664C644.168 192.666 652.319 183.926 662.531 177.445C672.94 170.964 684.626 167.724 697.588 167.724C708.193 167.724 717.62 169.982 725.869 174.499C734.314 178.82 741.09 184.908 746.196 192.764C751.302 200.424 754.15 209.36 754.739 219.572V261.699C754.15 271.715 751.302 280.651 746.196 288.507C741.286 296.363 734.609 302.55 726.164 307.067C717.915 311.387 708.39 313.548 697.588 313.548ZM702.007 288.507C715.165 288.507 725.771 284.088 733.823 275.251C741.875 266.216 745.901 254.727 745.901 240.783C745.901 231.16 744.036 222.813 740.304 215.742C736.769 208.476 731.663 202.879 724.985 198.951C718.308 194.826 710.55 192.764 701.712 192.764C692.875 192.764 685.019 194.826 678.145 198.951C671.467 203.075 666.165 208.77 662.237 216.037C658.505 223.107 656.639 231.258 656.639 240.488C656.639 249.915 658.505 258.262 662.237 265.529C666.165 272.599 671.566 278.196 678.439 282.321C685.313 286.445 693.169 288.507 702.007 288.507ZM744.134 310.602V272.894L749.142 238.721L744.134 204.842V170.67H770.942V310.602H744.134Z" fill="white"/>
<path d="M490.753 231.061V206.905H546.431C554.091 206.905 560.866 205.334 566.758 202.191C572.846 199.049 577.56 194.63 580.899 188.935C584.434 183.239 586.201 176.463 586.201 168.608C586.201 160.752 584.434 153.976 580.899 148.281C577.56 142.585 572.846 138.166 566.758 135.024C560.866 131.881 554.091 130.31 546.431 130.31H490.753V106.154H548.199C560.768 106.154 571.963 108.707 581.782 113.813C591.799 118.919 599.654 126.186 605.35 135.613C611.242 144.844 614.188 155.842 614.188 168.608C614.188 181.177 611.242 192.175 605.35 201.602C599.654 210.833 591.799 218.099 581.782 223.402C571.963 228.508 560.768 231.061 548.199 231.061H490.753ZM472.193 310.602V106.154H499.885V310.602H472.193Z" fill="white"/>
</svg>
