<svg xmlns="http://www.w3.org/2000/svg" viewBox="0 0 1000 120" preserveAspectRatio="none">
  <path
    fill="#f8fdff"
    d="M0 0h1000v47c-30-4-51 9-81 8-20 0-37-8-55-7-16 1-24 15-39 17-14 2-24-10-36-14-21-8-47-8-68 2-15 7-21 24-34 27-13 3-22-9-33-16-22-14-48-15-72-2-16 8-23 28-38 31-14 3-24-12-36-20-22-16-48-17-72-3-16 9-23 26-37 30-14 4-25-9-37-15-22-12-47-12-69 0-15 8-22 24-35 27-14 4-24-10-36-18-21-14-46-16-69-4-16 8-26 16-45 16-32 0-50-10-78-7z"
  />
  <path
    fill="#edf7fc"
    d="M0 47c28-3 46 8 76 7 18 0 29-8 45-16 23-12 48-10 69 4 12 8 22 22 36 18 13-3 20-20 35-27 22-12 47-12 69 0 12 6 23 19 37 15 14-4 21-21 37-30 24-14 50-13 72 3 12 8 22 23 36 20 15-3 22-23 38-31 24-12 50-11 72 3 11 7 20 19 33 16 13-3 19-20 34-27 21-10 47-10 68-2 12 4 22 16 36 14 15-2 23-16 39-17 18-1 35 7 55 7 30 1 51-12 81-8v11H0z"
    opacity=".88"
  />
  <path fill="#d7e9f4" d="M0 58h1000v2H0z" opacity=".58" />
  <path fill="#eef8fd" d="M236 82c-5 0-8 5-8 10 0 7 4 13 8 18 4-5 8-11 8-18 0-5-3-10-8-10z" />
  <path fill="#eef8fd" d="M704 72c-4 0-7 4-7 9 0 6 3 11 7 15 4-4 7-9 7-15 0-5-3-9-7-9z" />
  <path fill="#cfe3f0" d="M236 100c3-3 5-7 6-11-2 2-4 4-6 4s-4-2-6-4c1 4 3 8 6 11z" />
  <path fill="#cfe3f0" d="M704 87c3-2 4-5 5-8-1 2-3 3-5 3s-4-1-5-3c1 3 2 6 5 8z" />
</svg>
