<svg xmlns="http://www.w3.org/2000/svg" viewBox="0 0 1000 140" preserveAspectRatio="none">
  <defs>
    <linearGradient id="snowMainC" x1="0" y1="0" x2="0" y2="1">
      <stop offset="0" stop-color="#ffffff" />
      <stop offset=".55" stop-color="#edf7fc" />
      <stop offset="1" stop-color="#d6e7f2" />
    </linearGradient>
    <linearGradient id="snowContactC" x1="0" y1="0" x2="0" y2="1">
      <stop offset="0" stop-color="#b5ccdf" stop-opacity=".42" />
      <stop offset="1" stop-color="#b5ccdf" stop-opacity="0" />
    </linearGradient>
  </defs>

  <path
    fill="url(#snowMainC)"
    d="M0 0h1000v61c-23-2-36 6-58 7-24 1-38-10-59-11-26-1-40 12-60 24-21 12-38 15-58 6-21-9-31-32-52-42-25-11-48 1-68 16-20 15-35 33-61 36-28 4-42-14-63-25-23-12-46-12-69 1-20 11-33 31-55 35-24 5-38-10-57-23-21-14-45-17-69-8-20 7-35 23-57 26-22 3-35-11-53-20-20-10-40-11-61-4-17 5-31 14-50 14V0z"
  />
  <path
    fill="#f8fdff"
    opacity=".5"
    d="M0 0h1000v45c-23-3-37 6-59 6-21 1-33-9-52-10-23-1-36 8-54 17-20 10-35 13-54 6-18-8-27-24-44-32-21-9-40 0-57 12-18 13-31 27-52 30-23 3-35-11-53-20-20-10-40-10-59 0-18 10-31 26-50 30-20 4-33-8-49-19-18-12-39-14-59-6-18 7-30 20-48 23-18 3-29-8-44-15-17-8-34-9-52-4-16 4-27 11-43 11V0z"
  />
  <rect x="0" y="66" width="1000" height="8" fill="url(#snowContactC)" opacity=".58" />

  <g fill="#f5fbff" opacity=".66">
    <ellipse cx="102" cy="24" rx="14" ry="4" />
    <ellipse cx="262" cy="29" rx="19" ry="5" />
    <ellipse cx="492" cy="24" rx="16" ry="4" />
    <ellipse cx="706" cy="31" rx="20" ry="5" />
    <ellipse cx="884" cy="25" rx="15" ry="4" />
  </g>

  <g fill="#ebf6fd" opacity=".84">
    <path d="M210 80c-4 0-7 4-7 9 0 6 3 11 7 15 4-4 7-9 7-15 0-5-3-9-7-9z" />
    <path d="M612 74c-3 0-6 4-6 8 0 5 3 9 6 13 3-4 6-8 6-13 0-4-3-8-6-8z" />
    <path d="M854 78c-3 0-6 4-6 8 0 5 3 9 6 12 3-3 6-7 6-12 0-4-3-8-6-8z" />
  </g>
</svg>
