<svg xmlns="http://www.w3.org/2000/svg" viewBox="0 0 1000 140" preserveAspectRatio="none">
  <defs>
    <linearGradient id="snowMain" x1="0" y1="0" x2="0" y2="1">
      <stop offset="0" stop-color="#ffffff" />
      <stop offset=".52" stop-color="#eef7fc" />
      <stop offset="1" stop-color="#d9e9f4" />
    </linearGradient>
    <linearGradient id="snowContact" x1="0" y1="0" x2="0" y2="1">
      <stop offset="0" stop-color="#bcd2e4" stop-opacity=".46" />
      <stop offset="1" stop-color="#bcd2e4" stop-opacity="0" />
    </linearGradient>
  </defs>

  <path
    fill="url(#snowMain)"
    d="M0 0h1000v60c-28-4-45 12-75 12-29 0-43-24-72-24-30 0-42 28-70 34-31 7-44-22-73-24-32-2-49 25-72 40-23 14-41 14-62 1-23-14-31-44-57-51-30-8-53 14-73 33-20 19-37 35-66 28-31-7-42-40-71-46-31-6-53 15-72 32-20 17-38 31-64 24-29-9-38-42-68-47-27-4-44 13-69 22-19 7-37 7-56 2V0z"
  />
  <path
    fill="#f8fdff"
    opacity=".52"
    d="M0 0h1000v44c-31-5-51 8-82 8-28 0-43-13-70-12-29 1-43 20-70 23-30 3-43-12-70-16-32-4-55 8-77 24-20 14-35 20-56 14-23-6-33-25-52-35-26-14-52-9-76 9-19 14-34 24-56 21-23-4-34-21-52-31-24-12-49-9-72 4-20 12-36 25-59 24-24-1-38-17-59-24-22-7-43-1-63 8V0z"
  />
  <rect x="0" y="66" width="1000" height="8" fill="url(#snowContact)" opacity=".62" />

  <g fill="#f4fbff" opacity=".72">
    <ellipse cx="92" cy="26" rx="18" ry="5" />
    <ellipse cx="282" cy="31" rx="22" ry="6" />
    <ellipse cx="494" cy="22" rx="17" ry="5" />
    <ellipse cx="722" cy="28" rx="21" ry="6" />
    <ellipse cx="912" cy="24" rx="19" ry="5" />
  </g>

  <g fill="#ecf7fd" opacity=".88">
    <path d="M248 78c-4 0-7 4-7 9 0 6 3 11 7 15 4-4 7-9 7-15 0-5-3-9-7-9z" />
    <path d="M684 74c-3 0-6 4-6 8 0 5 3 9 6 13 3-4 6-8 6-13 0-4-3-8-6-8z" />
  </g>
</svg>
