<svg xmlns="http://www.w3.org/2000/svg" viewBox="0 0 1200 120" preserveAspectRatio="none">
  <defs>
    <linearGradient id="panelSnowMain" x1="0" y1="0" x2="0" y2="1">
      <stop offset="0" stop-color="#ffffff" />
      <stop offset=".56" stop-color="#edf7fc" />
      <stop offset="1" stop-color="#d8e8f3" />
    </linearGradient>
  </defs>

  <path
    fill="url(#panelSnowMain)"
    d="M0 0h1200v44c-25-3-41 8-66 8-26 0-40-17-66-18-28-1-41 19-67 26-27 8-40-10-65-17-27-8-53 3-73 23-17 17-31 25-54 20-24-5-34-24-55-35-25-13-51-9-73 8-17 13-31 28-55 30-25 2-37-16-57-26-23-12-48-12-71-1-19 9-33 24-54 27-23 3-37-11-57-19-23-10-48-8-72 1-20 8-35 19-58 19-25 0-40-12-65-13V0z"
  />
  <path
    fill="#f8fdff"
    opacity=".46"
    d="M0 0h1200v32c-23-3-38 8-61 8-23 0-36-10-58-11-24-1-37 9-58 18-23 10-40 14-61 7-22-7-32-22-50-30-22-10-45-5-64 9-17 12-30 24-50 25-22 2-33-13-50-21-20-10-40-10-60-1-17 8-29 20-48 23-20 3-32-8-49-15-20-8-40-7-60 1-17 7-29 16-49 16-22 0-34-10-55-11V0z"
  />
  <path fill="#d0e2ee" d="M0 50h1200v2H0z" opacity=".5" />
  <path fill="#ecf7fd" d="M278 64c-3 0-6 3-6 8 0 5 3 9 6 13 3-4 6-8 6-13 0-5-3-8-6-8z" opacity=".9" />
  <path fill="#ecf7fd" d="M764 60c-3 0-6 3-6 7 0 5 3 9 6 12 3-3 6-7 6-12 0-4-3-7-6-7z" opacity=".88" />
</svg>
