<svg xmlns="http://www.w3.org/2000/svg" viewBox="0 0 1000 78" preserveAspectRatio="none">
  <path
    fill="#f8fdff"
    d="M0 0h1000v24c-27-2-46 8-73 8-19 0-34-7-51-8-16-1-29 7-45 8-17 1-32-7-49-8-18-1-33 7-50 8-16 1-31-7-47-8-17-1-31 6-48 8-18 2-34-6-51-8-18-2-33 6-51 8-19 2-35-7-54-8-28-1-46 9-73 8z"
  />
  <path fill="#ecf6fc" d="M0 24c27 1 45-9 73-8 19 1 35 10 54 8 18-2 33-10 51-8 17 2 33 10 51 8 17-2 31-9 48-8 16 1 31 9 47 8 17-1 32-9 50-8 17 1 32 9 49 8 16-1 29-9 45-8 17 1 32 8 51 8 27 0 46-10 73-8v7H0z" opacity=".84" />
</svg>
