<svg xmlns="http://www.w3.org/2000/svg" viewBox="0 0 900 84" preserveAspectRatio="none">
  <path
    fill="#f7fcff"
    d="M0 0h900v28c-23-3-38 7-61 7-16 0-28-7-43-8-14-1-26 7-40 9-15 2-27-7-42-9-17-2-32 5-47 11-14 6-26 7-41 1-14-6-22-20-37-24-17-4-31 5-45 14-13 9-25 18-42 18-18 0-27-12-41-19-16-8-32-7-47 1-13 7-23 18-39 20-17 2-27-7-40-13-15-7-31-7-47-1-14 5-25 13-40 13-17 0-27-11-42-13-16-2-29 7-44 9-16 2-29-6-45-8-22-2-38 8-61 8z"
  />
  <path fill="#eaf5fb" d="M0 28c23 0 39-10 61-8 16 2 29 10 45 8 15-2 28-11 44-9 15 2 25 13 42 13 15 0 26-8 40-13 16-6 32-6 47 1 13 6 23 15 40 13 16-2 26-13 39-20 15-8 31-9 47-1 14 7 23 19 41 19 17 0 29-9 42-18 14-9 28-18 45-14 15 4 23 18 37 24 15 6 27 5 41-1 15-6 30-13 47-11 15 2 27 11 42 9 14-2 26-10 40-9 15 1 27 8 43 8 23 0 38-10 61-7v8H0z" opacity=".84" />
</svg>
