<svg xmlns="http://www.w3.org/2000/svg" viewBox="0 0 1400 190" preserveAspectRatio="none">
  <defs>
    <linearGradient id="tableSnowMain" x1="0" y1="0" x2="0" y2="1">
      <stop offset="0" stop-color="#ffffff" />
      <stop offset=".54" stop-color="#eef7fc" />
      <stop offset="1" stop-color="#d8e8f3" />
    </linearGradient>
    <linearGradient id="tableContact" x1="0" y1="0" x2="0" y2="1">
      <stop offset="0" stop-color="#bcd2e4" stop-opacity=".46" />
      <stop offset="1" stop-color="#bcd2e4" stop-opacity="0" />
    </linearGradient>
  </defs>

  <path
    fill="url(#tableSnowMain)"
    d="M0 0h1400v66c-36-6-57 14-93 14-37 0-57-34-95-34-40 0-56 40-94 49-40 10-57-24-95-30-42-7-70 12-103 38-29 24-54 31-86 17-35-15-47-54-85-65-42-13-74 13-104 39-29 25-54 50-93 51-41 2-62-27-96-42-36-15-73-9-104 15-28 22-47 56-84 64-39 9-63-14-93-35-35-24-72-31-113-20-30 8-52 31-84 35-31 4-51-13-76-25-28-13-57-16-86-7-22 6-39 19-61 19V0z"
  />
  <path
    fill="#f8fdff"
    opacity=".5"
    d="M0 0h1400v48c-37-5-58 12-94 12-34 0-52-20-84-21-38-2-58 16-89 31-31 15-53 18-81 8-30-10-44-36-72-45-35-12-64 5-89 24-28 21-50 42-85 42-36 0-55-23-84-35-31-12-63-8-90 11-25 17-43 43-75 49-34 6-55-12-81-29-29-18-61-24-94-16-26 6-45 23-72 26-27 3-43-10-66-20-25-11-49-12-75-6-20 5-35 13-56 13V0z"
  />

  <rect x="0" y="73" width="1400" height="9" fill="url(#tableContact)" opacity=".62" />

  <g fill="#f4fbff" opacity=".72">
    <ellipse cx="120" cy="29" rx="20" ry="6" />
    <ellipse cx="324" cy="25" rx="24" ry="7" />
    <ellipse cx="578" cy="32" rx="22" ry="6" />
    <ellipse cx="844" cy="24" rx="25" ry="7" />
    <ellipse cx="1110" cy="31" rx="23" ry="6" />
    <ellipse cx="1318" cy="27" rx="18" ry="5" />
  </g>

  <g fill="#ecf7fd" opacity=".9">
    <path d="M182 101c-5 0-9 5-9 11 0 8 4 14 9 20 5-6 9-12 9-20 0-6-4-11-9-11z" />
    <path d="M498 110c-4 0-8 5-8 10 0 7 4 13 8 18 4-5 8-11 8-18 0-5-4-10-8-10z" />
    <path d="M804 97c-5 0-8 5-8 10 0 7 4 13 8 18 4-5 8-11 8-18 0-5-3-10-8-10z" />
    <path d="M1108 106c-4 0-7 4-7 9 0 6 3 11 7 15 4-4 7-9 7-15 0-5-3-9-7-9z" />
  </g>
</svg>
