<svg xmlns="http://www.w3.org/2000/svg" viewBox="0 0 1200 110" preserveAspectRatio="none">
  <path
    fill="#f7fcff"
    d="M0 0h1200v41c-28-3-49 8-76 7-18 0-32-8-49-7-14 1-22 13-35 15-13 2-23-8-34-13-20-9-42-9-61 1-14 7-20 21-32 24-12 3-21-8-32-14-21-13-44-15-66-3-15 8-21 22-34 26-13 4-23-7-34-13-21-12-44-13-65-3-15 7-22 22-34 25-13 3-22-8-34-15-20-12-43-14-65-4-16 7-25 14-43 14-29 0-46-10-71-7z"
  />
  <path fill="#eaf5fb" d="M0 41c25-3 42 7 71 7 18 0 27-7 43-14 22-10 45-8 65 4 12 7 21 18 34 15 12-3 19-18 34-25 21-10 44-9 65 3 11 6 21 17 34 13 13-4 19-18 34-26 22-12 45-10 66 3 11 6 20 17 32 14 12-3 18-17 32-24 19-10 41-10 61-1 11 5 21 15 34 13 13-2 21-14 35-15 17-1 31 7 49 7 27 1 48-10 76-7v9H0z" opacity=".88" />
  <path fill="#d7e9f4" d="M0 50h1200v2H0z" opacity=".52" />
  <path fill="#edf8fd" d="M276 66c-4 0-6 3-6 8 0 5 2 9 6 13 3-4 6-8 6-13 0-5-2-8-6-8z" />
  <path fill="#edf8fd" d="M764 62c-3 0-6 3-6 7 0 5 2 9 6 12 3-3 6-7 6-12 0-4-3-7-6-7z" />
</svg>
