<svg xmlns="http://www.w3.org/2000/svg" viewBox="0 0 1400 170" preserveAspectRatio="none">
  <path
    fill="#f8fdff"
    d="M0 0h1400v58c-24-4-42 4-63 8-26 5-48-8-73-8-21 0-33 19-51 20-18 2-30-13-45-20-26-12-56-12-82 2-18 10-25 31-43 35-17 4-30-10-45-21-26-18-57-20-86-5-20 10-29 32-47 36-18 4-31-10-47-20-29-19-61-20-91-5-20 10-30 31-48 37-18 6-33-8-49-16-28-15-58-15-86 0-19 10-29 31-47 35-18 4-32-11-48-22-27-18-58-20-88-5-21 10-34 20-58 20-37 0-58-12-91-9z"
  />
  <path
    fill="#ebf6fb"
    d="M0 58c33-3 54 9 91 9 24 0 37-10 58-20 30-15 61-13 88 5 16 11 30 26 48 22 18-4 28-25 47-35 28-15 58-15 86 0 16 8 31 22 49 16 18-6 28-27 48-37 30-15 62-14 91 5 16 10 29 24 47 20 18-4 27-26 47-36 29-15 60-13 86 5 15 11 28 25 45 21 18-4 25-25 43-35 26-14 56-14 82-2 15 7 27 22 45 20 18-1 30-20 51-20 25 0 47 13 73 8 21-4 39-12 63-8v13H0z"
    opacity=".88"
  />
  <path fill="#d7e9f4" d="M0 71h1400v2H0z" opacity=".58" />
  <path fill="#eef8fd" d="M188 93c-5 0-9 5-9 11 0 8 5 14 9 19 5-5 9-11 9-19 0-6-4-11-9-11z" />
  <path fill="#eef8fd" d="M514 103c-4 0-8 4-8 10 0 7 4 13 8 18 4-5 8-11 8-18 0-6-4-10-8-10z" />
  <path fill="#eef8fd" d="M812 90c-5 0-9 5-9 11 0 8 5 14 9 20 5-6 9-12 9-20 0-6-4-11-9-11z" />
  <path fill="#eef8fd" d="M1096 102c-4 0-7 4-7 9 0 6 3 11 7 15 4-4 7-9 7-15 0-5-3-9-7-9z" />
  <path fill="#eef8fd" d="M1278 96c-4 0-7 4-7 9 0 6 3 11 7 15 4-4 7-9 7-15 0-5-3-9-7-9z" />
  <path fill="#cfe3f0" d="M188 112c3-3 5-7 6-11-2 2-4 4-6 4s-4-2-6-4c1 4 3 8 6 11z" />
  <path fill="#cfe3f0" d="M812 110c3-3 5-7 6-11-2 2-4 4-6 4s-4-2-6-4c1 4 3 8 6 11z" />
</svg>
