<svg xmlns="http://www.w3.org/2000/svg" viewBox="0 0 900 80" preserveAspectRatio="none">
  <path
    fill="#f7fcff"
    d="M0 0h900v27c-24-3-40 6-63 6-16 0-29-6-44-6-13 0-24 8-37 9-14 1-26-6-39-9-15-3-29-3-44 0-12 3-23 10-36 9-14-1-24-9-37-9-14 0-25 9-39 9-13 0-25-7-37-9-15-3-29-3-44 0-13 3-25 10-39 9-14-1-24-8-37-9-14-1-25 7-38 8-14 2-26-6-39-8-15-2-27 7-41 8-15 1-27-7-41-8-15-1-27 7-42 8-24 1-40-8-63-6z"
  />
  <path fill="#eaf5fb" d="M0 27c23-2 39 7 63 6 15-1 27-9 42-8 14 1 26 9 41 8 14-1 26-10 41-8 13 2 25 10 39 8 13-1 24-9 38-8 13 1 23 8 37 9 14 1 26-6 39-9 15-3 29-3 44 0 12 2 24 9 37 9 14 0 25-9 39-9 13 0 23 8 37 9 13 1 24-6 36-9 15-3 29-3 44 0 13 3 25 10 39 9 13-1 24-9 37-9 15 0 28 6 44 6 23 0 39-9 63-6v8H0z" opacity=".86" />
</svg>
