<svg xmlns="http://www.w3.org/2000/svg" viewBox="0 0 1000 70" preserveAspectRatio="none">
  <path
    fill="#f8fdff"
    d="M0 0h1000v21c-30-3-53 8-83 7-20 0-39-6-58-6-17 1-33 8-50 8-19 0-37-8-56-8s-37 8-56 8c-18 0-35-7-52-8-18-1-34 7-51 8-18 1-35-7-53-8-19-1-36 7-55 8-18 1-35-7-53-8-19-1-35 7-54 8-20 1-36-8-55-8-30 1-53 10-84 7z"
  />
  <path fill="#eaf5fb" d="M0 21c31 3 54-6 84-7 19 0 35 9 55 8 19-1 35-9 54-8 18 1 35 9 53 8 19-1 36-9 55-8 18 1 35 9 53 8 17-1 33-9 51-8 17 1 34 8 52 8 19 0 37-8 56-8s37 8 56 8c17 0 33-7 50-8 19 0 38 6 58 6 30 1 53-10 83-7v8H0z" opacity=".88" />
</svg>
